<svg width="10" height="10" viewBox="0 0 10 10" fill="none" xmlns="http://www.w3.org/2000/svg">
<g clip-path="url(#clip0_82_57)">
<rect width="10" height="10" fill="white"/>
<path d="M5 0C3.67392 0 2.40215 0.526784 1.46447 1.46447C0.526784 2.40215 0 3.67392 0 5C0 6.32608 0.526784 7.59785 1.46447 8.53553C2.40215 9.47322 3.67392 10 5 10C6.32608 10 7.59785 9.47322 8.53553 8.53553C9.47322 7.59785 10 6.32608 10 5C10 3.67392 9.47322 2.40215 8.53553 1.46447C7.59785 0.526784 6.32608 0 5 0V0ZM6.31792 9.07625H6.27917C6.25006 9.07789 6.22093 9.07357 6.19355 9.06354C6.16618 9.0535 6.14115 9.03798 6.12 9.01792C6.10045 8.99726 6.08523 8.97291 6.07521 8.9463C6.0652 8.91968 6.06059 8.89133 6.06167 8.86292V8.27708C6.06417 8.0825 6.06583 7.88542 6.06583 7.68708C6.06515 7.54205 6.04397 7.39785 6.00292 7.25875C5.96403 7.11814 5.88565 6.99162 5.77708 6.89417C6.0675 6.86613 6.35298 6.80015 6.62625 6.69792C6.85676 6.61026 7.06526 6.47315 7.23708 6.29625C7.40667 6.11833 7.53292 5.90333 7.60583 5.66875C7.69453 5.38147 7.73673 5.08185 7.73083 4.78125C7.73246 4.57136 7.69574 4.36295 7.6225 4.16625C7.54807 3.968 7.43554 3.78625 7.29125 3.63125C7.3224 3.55308 7.34503 3.47177 7.35875 3.38875C7.3725 3.30542 7.37958 3.22125 7.37958 3.13708C7.37958 3.02875 7.36708 2.92042 7.34208 2.815C7.31937 2.70688 7.28859 2.60061 7.25 2.49708C7.23527 2.49134 7.21956 2.48851 7.20375 2.48875H7.15792C7.06208 2.48958 6.96792 2.50542 6.87708 2.535C6.77703 2.56421 6.67915 2.60041 6.58417 2.64333C6.48971 2.68567 6.39775 2.73339 6.30875 2.78625C6.21917 2.83917 6.14 2.89 6.07 2.93708C5.36905 2.74172 4.62803 2.74172 3.92708 2.93708C3.84891 2.88482 3.76944 2.83453 3.68875 2.78625C3.59848 2.73295 3.50497 2.68535 3.40875 2.64375C3.31403 2.5994 3.21577 2.56302 3.115 2.535C3.02596 2.50558 2.93293 2.48999 2.83917 2.48875H2.79333C2.77766 2.48853 2.76209 2.49136 2.7475 2.49708C2.70836 2.60075 2.67634 2.70697 2.65167 2.815C2.62917 2.92083 2.61833 3.02875 2.61792 3.13708C2.61792 3.22125 2.625 3.30542 2.63917 3.38875C2.65292 3.47167 2.675 3.55292 2.70583 3.63125C2.56191 3.78645 2.4498 3.96835 2.37583 4.16667C2.3022 4.36329 2.26506 4.57171 2.26625 4.78167C2.26042 5.08066 2.30148 5.37872 2.38792 5.665C2.46333 5.89958 2.58917 6.115 2.75625 6.29667C2.92917 6.4725 3.1375 6.60917 3.36708 6.69833C3.63917 6.8025 3.92417 6.86917 4.21417 6.89667C4.1332 6.97005 4.06896 7.06001 4.02583 7.16042C3.9848 7.25972 3.95679 7.36392 3.9425 7.47042C3.78962 7.54362 3.62242 7.58204 3.45292 7.58292C3.2955 7.58922 3.14015 7.54545 3.00917 7.45792C2.88352 7.3648 2.77711 7.2482 2.69583 7.11458C2.65946 7.05846 2.61878 7.00524 2.57417 6.95542C2.5271 6.90302 2.4752 6.85517 2.41917 6.8125C2.36393 6.77123 2.30339 6.73759 2.23917 6.7125C2.17598 6.6848 2.10774 6.67047 2.03875 6.67042C2.02208 6.67083 2.00542 6.6725 1.98875 6.67458C1.96599 6.67451 1.94331 6.67731 1.92125 6.68292C1.90186 6.68799 1.88352 6.69646 1.86708 6.70792C1.85961 6.71204 1.85336 6.71806 1.84897 6.72538C1.84458 6.7327 1.8422 6.74105 1.84208 6.74958C1.84383 6.76964 1.84996 6.78906 1.86004 6.80648C1.87012 6.82391 1.88391 6.8389 1.90042 6.85042C1.93917 6.88125 1.97125 6.905 1.99708 6.92167L2.00958 6.93042C2.065 6.97333 2.11833 7.01958 2.16875 7.06917C2.21542 7.11 2.2575 7.15625 2.29375 7.20667C2.33125 7.25625 2.36375 7.30917 2.39 7.36542C2.42042 7.42125 2.4525 7.48542 2.48625 7.55833C2.56458 7.75583 2.70375 7.92292 2.88375 8.03542C3.0725 8.13667 3.28417 8.18708 3.49875 8.18167C3.57125 8.18167 3.64417 8.1775 3.71625 8.16917C3.78792 8.1575 3.85917 8.14542 3.93083 8.13125V8.8575C3.93213 8.88678 3.92723 8.91601 3.91646 8.94327C3.90569 8.97053 3.88929 8.99521 3.86833 9.0157C3.84737 9.03619 3.82232 9.05202 3.79482 9.06217C3.76733 9.07232 3.738 9.07655 3.70875 9.07458H3.68292C2.71127 8.76069 1.88361 8.1102 1.34899 7.24025C0.814362 6.37031 0.607902 5.33806 0.766784 4.32941C0.925665 3.32075 1.43945 2.40196 2.21561 1.73848C2.99178 1.07501 3.97932 0.710446 5.00042 0.710446C6.02151 0.710446 7.00905 1.07501 7.78522 1.73848C8.56139 2.40196 9.07517 3.32075 9.23405 4.32941C9.39293 5.33806 9.18647 6.37031 8.65185 7.24025C8.11722 8.1102 7.28957 8.76069 6.31792 9.07458V9.07667V9.07625Z" fill="black"/>
</g>
<defs>
<clipPath id="clip0_82_57">
<rect width="10" height="10" fill="white"/>
</clipPath>
</defs>
</svg>
