<svg width="10" height="9" viewBox="0 0 10 9" fill="none" xmlns="http://www.w3.org/2000/svg">
<path fill-rule="evenodd" clip-rule="evenodd" d="M1.42857 0C1.04969 0 0.686328 0.125454 0.418419 0.348762C0.15051 0.572071 0 0.874943 0 1.19075V7.1445C0 7.4603 0.15051 7.76318 0.418419 7.98648C0.686328 8.20979 1.04969 8.33525 1.42857 8.33525H8.57143C8.95031 8.33525 9.31367 8.20979 9.58158 7.98648C9.84949 7.76318 10 7.4603 10 7.1445V1.19075C10 0.874943 9.84949 0.572071 9.58158 0.348762C9.31367 0.125454 8.95031 0 8.57143 0H1.42857ZM2.21571 2.55833C2.4421 2.55833 2.6592 2.48337 2.81928 2.34994C2.97936 2.21651 3.06929 2.03555 3.06929 1.84685C3.06929 1.65816 2.97936 1.47719 2.81928 1.34377C2.6592 1.21034 2.4421 1.13538 2.21571 1.13538C1.98933 1.13538 1.77222 1.21034 1.61215 1.34377C1.45207 1.47719 1.36214 1.65816 1.36214 1.84685C1.36214 2.03555 1.45207 2.21651 1.61215 2.34994C1.77222 2.48337 1.98933 2.55833 2.21571 2.55833ZM2.93 7.03316V3.11619H1.50143V7.03316H2.93ZM3.87857 3.11619H5.30714V3.64072C5.51786 3.36565 5.98071 2.99533 6.84143 2.99533C7.86857 2.99533 8.42643 3.56272 8.42643 4.64214C8.42643 4.69393 8.43214 4.9303 8.43214 4.9303V7.03257H7.00357V4.93089C7.00357 4.64214 6.93071 4.07474 6.16071 4.07474C5.39 4.07474 5.325 4.788 5.30714 5.25478V7.03257H3.87857V3.11619Z" fill="white"/>
</svg>
