<svg width="40" height="40" viewBox="0 0 40 40" fill="none" xmlns="http://www.w3.org/2000/svg">
<path fill-rule="evenodd" clip-rule="evenodd" d="M5.71429 0C4.19876 0 2.74531 0.598472 1.67368 1.66376C0.602039 2.72904 0 4.17388 0 5.68042V34.0825C0 35.5891 0.602039 37.0339 1.67368 38.0992C2.74531 39.1645 4.19876 39.763 5.71429 39.763H34.2857C35.8012 39.763 37.2547 39.1645 38.3263 38.0992C39.398 37.0339 40 35.5891 40 34.0825V5.68042C40 4.17388 39.398 2.72904 38.3263 1.66376C37.2547 0.598472 35.8012 0 34.2857 0H5.71429ZM8.86286 12.2044C9.76838 12.2044 10.6368 11.8468 11.2771 11.2103C11.9174 10.5738 12.2771 9.7105 12.2771 8.81034C12.2771 7.91018 11.9174 7.04689 11.2771 6.41038C10.6368 5.77387 9.76838 5.41628 8.86286 5.41628C7.95733 5.41628 7.0889 5.77387 6.44859 6.41038C5.80829 7.04689 5.44857 7.91018 5.44857 8.81034C5.44857 9.7105 5.80829 10.5738 6.44859 11.2103C7.0889 11.8468 7.95733 12.2044 8.86286 12.2044ZM11.72 33.5514V14.8657H6.00571V33.5514H11.72ZM15.5143 14.8657H21.2286V17.3679C22.0714 16.0557 23.9229 14.2891 27.3657 14.2891C31.4743 14.2891 33.7057 16.9958 33.7057 22.1451C33.7057 22.3922 33.7286 23.5198 33.7286 23.5198V33.5486H28.0143V23.5226C28.0143 22.1451 27.7229 19.4384 24.6429 19.4384C21.56 19.4384 21.3 22.841 21.2286 25.0677V33.5486H15.5143V14.8657Z" fill="white"/>
</svg>
