<svg width="10" height="9" viewBox="0 0 10 9" fill="none" xmlns="http://www.w3.org/2000/svg">
<path d="M6.25 0H1.25C0.5625 0 0 0.375086 0 0.833525V7.50172C0 7.96016 0.5625 8.33525 1.25 8.33525H8.75C9.4375 8.33525 10 7.96016 10 7.50172V2.50057L6.25 0ZM5 3.3341C5.6875 3.3341 6.25 3.70918 6.25 4.16762C6.25 4.62606 5.6875 5.00115 5 5.00115C4.3125 5.00115 3.75 4.62606 3.75 4.16762C3.75 3.70918 4.3125 3.3341 5 3.3341ZM7.5 6.6682H2.5V6.43064C2.5 6.09307 2.8 5.793 3.2625 5.65963C3.81053 5.50014 4.40205 5.41782 5 5.41782C5.59795 5.41782 6.18947 5.50014 6.7375 5.65963C6.96393 5.72417 7.15692 5.83166 7.29249 5.96874C7.42805 6.10582 7.50022 6.26644 7.5 6.43064V6.6682Z" fill="white"/>
</svg>
