<svg width="40" height="40" viewBox="0 0 40 40" fill="none" xmlns="http://www.w3.org/2000/svg">
<path d="M25 0H5C2.25 0 0 1.78933 0 3.9763V35.7867C0 37.9736 2.25 39.763 5 39.763H35C37.75 39.763 40 37.9736 40 35.7867V11.9289L25 0ZM20 15.9052C22.75 15.9052 25 17.6945 25 19.8815C25 22.0684 22.75 23.8578 20 23.8578C17.25 23.8578 15 22.0684 15 19.8815C15 17.6945 17.25 15.9052 20 15.9052ZM30 31.8104H10V30.6771C10 29.0667 11.2 27.6353 13.05 26.9991C15.2421 26.2382 17.6082 25.8455 20 25.8455C22.3918 25.8455 24.7579 26.2382 26.95 26.9991C27.8557 27.3069 28.6277 27.8197 29.17 28.4736C29.7122 29.1276 30.0009 29.8938 30 30.6771V31.8104Z" fill="white"/>
</svg>
